<?xml version="1.0" encoding="UTF-8" standalone="no"?>
<svg
   xmlns:dc="http://purl.org/dc/elements/1.1/"
   xmlns:cc="http://creativecommons.org/ns#"
   xmlns:rdf="http://www.w3.org/1999/02/22-rdf-syntax-ns#"
   xmlns:svg="http://www.w3.org/2000/svg"
   xmlns="http://www.w3.org/2000/svg"
   xmlns:sodipodi="http://sodipodi.sourceforge.net/DTD/sodipodi-0.dtd"
   xmlns:inkscape="http://www.inkscape.org/namespaces/inkscape"
   t="1594265539043"
   class="icon"
   viewBox="0 0 1000 1000"
   version="1.1"
   p-id="2063"
   width="23px"
   height="50px"
   id="svg147"
   sodipodi:docname="degradation.svg"
   inkscape:version="0.92.5 (2060ec1f9f, 2020-04-08)">
  <metadata
     id="metadata151">
    <rdf:RDF>
      <cc:Work
         rdf:about="">
        <dc:format>image/svg+xml</dc:format>
        <dc:type
           rdf:resource="http://purl.org/dc/dcmitype/StillImage" />
      </cc:Work>
    </rdf:RDF>
  </metadata>
  <sodipodi:namedview
     pagecolor="#ffffff"
     bordercolor="#666666"
     borderopacity="1"
     objecttolerance="10"
     gridtolerance="10"
     guidetolerance="10"
     inkscape:pageopacity="0"
     inkscape:pageshadow="2"
     inkscape:window-width="1920"
     inkscape:window-height="1025"
     id="namedview149"
     showgrid="false"
     inkscape:zoom="5.5507884"
     inkscape:cx="-103.88207"
     inkscape:cy="40.015207"
     inkscape:window-x="1366"
     inkscape:window-y="19"
     inkscape:window-maximized="1"
     inkscape:current-layer="svg147" />
  <defs
     id="defs143">
    <style
       type="text/css"
       id="style141" />
  </defs>
  <path
     d="M 32.989825,783.12905 449.18898,1566.5051 c 32.50495,61.1813 85.19659,61.1813 117.70153,0 L 983.08965,783.12905 c 32.50495,-61.18106 32.50495,-160.3582 0,-221.53953 -32.50495,-61.18106 -85.19658,-61.18106 -117.70153,0 L 591.27813,1077.5235 V -424.36614 c 0,-86.56345 -37.25059,-156.67705 -83.2408,-156.67705 -45.99023,0 -83.2408,70.1136 -83.2408,156.67705 V 1077.5235 l -274.11,-515.93398 c -16.23147,-30.55395 -37.54152,-45.90567 -58.851585,-45.90567 -21.31007,0 -42.61851,15.27566 -58.85159,45.90567 -32.5049796,61.18133 -32.5049796,160.35847 0,221.53953 z"
     p-id="2064"
     id="path145"
     inkscape:connector-curvature="0"
     style="fill:#008000;stroke-width:2.21754265" />
</svg>
