<?xml version="1.0" encoding="UTF-8" standalone="no"?>
<svg
   xmlns:dc="http://purl.org/dc/elements/1.1/"
   xmlns:cc="http://creativecommons.org/ns#"
   xmlns:rdf="http://www.w3.org/1999/02/22-rdf-syntax-ns#"
   xmlns:svg="http://www.w3.org/2000/svg"
   xmlns="http://www.w3.org/2000/svg"
   xmlns:sodipodi="http://sodipodi.sourceforge.net/DTD/sodipodi-0.dtd"
   xmlns:inkscape="http://www.inkscape.org/namespaces/inkscape"
   t="1594265539043"
   class="icon"
   viewBox="0 0 1000 1000"
   version="1.1"
   p-id="2063"
   width="23px"
   height="50px"
   id="svg147"
   sodipodi:docname="promotion_and_degradation.svg"
   inkscape:version="0.92.5 (2060ec1f9f, 2020-04-08)">
  <metadata
     id="metadata151">
    <rdf:RDF>
      <cc:Work
         rdf:about="">
        <dc:format>image/svg+xml</dc:format>
        <dc:type
           rdf:resource="http://purl.org/dc/dcmitype/StillImage" />
      </cc:Work>
    </rdf:RDF>
  </metadata>
  <sodipodi:namedview
     pagecolor="#ffffff"
     bordercolor="#666666"
     borderopacity="1"
     objecttolerance="10"
     gridtolerance="10"
     guidetolerance="10"
     inkscape:pageopacity="0"
     inkscape:pageshadow="2"
     inkscape:window-width="1920"
     inkscape:window-height="1025"
     id="namedview149"
     showgrid="false"
     inkscape:zoom="5.5507884"
     inkscape:cx="-62.841782"
     inkscape:cy="8.1408498"
     inkscape:window-x="1366"
     inkscape:window-y="19"
     inkscape:window-maximized="1"
     inkscape:current-layer="svg147" />
  <defs
     id="defs143">
    <style
       type="text/css"
       id="style141" />
  </defs>
  <path
     d="m 40.822694,1211.853 416.199096,341.3779 c 32.505,26.6615 85.1966,26.6615 117.7016,0 l 416.1991,-341.3779 c 32.50501,-26.6615 32.50501,-69.8806 0,-96.5421 -32.5049,-26.6615 -85.1966,-26.6615 -117.7015,0 l -274.11,224.8326 V 685.65296 c 0,-37.72242 -37.2506,-68.27635 -83.2408,-68.27635 -45.9902,0 -83.2408,30.55393 -83.2408,68.27635 v 654.49054 l -274.11,-224.8326 c -16.2315,-13.3149 -37.5415,-20.0048 -58.851596,-20.0048 -21.3101,0 -42.6185,6.6568 -58.8516,20.0048 -32.505,26.6615 -32.505,69.8806 0,96.5421 z"
     p-id="2064"
     id="path145"
     inkscape:connector-curvature="0"
     style="fill:#008000;stroke-width:1.46387732;fill-opacity:1" />
  <path
     d="M 984.17926,-219.37891 567.98008,-577.54166 c -32.505,-27.97236 -85.19656,-27.97236 -117.70156,0 L 34.079403,-219.37891 c -32.505,27.97234 -32.505,73.31647 0,101.28881 32.504906,27.972353 85.196597,27.972353 117.701497,0 l 274.11,-235.8871 v 686.67023 c 0,39.57716 37.25062,71.63343 83.24079,71.63343 45.99022,0 83.24083,-32.05627 83.24083,-71.63343 V -353.9772 l 274.11,235.8871 c 16.23148,13.96949 37.54148,20.988307 58.85156,20.988307 21.31014,0 42.61858,-6.984047 58.85158,-20.988307 32.50504,-27.97234 32.50504,-73.31647 0,-101.28881 z"
     p-id="2064"
     id="path145-3"
     inkscape:connector-curvature="0"
     style="fill:#800080;stroke-width:1.4994334" />
</svg>
